<?xml version="1.0" encoding="utf-8"?>
<!-- Generator: Adobe Illustrator 19.0.0, SVG Export Plug-In . SVG Version: 6.00 Build 0)  -->
<svg version="1.1" id="Layer_1" xmlns="http://www.w3.org/2000/svg" xmlns:xlink="http://www.w3.org/1999/xlink" x="0px" y="0px"
	 viewBox="-169 292.9 256 256" style="enable-background:new -169 292.9 256 256;" xml:space="preserve">
<style type="text/css">
	.st0{fill:none;stroke:#F7600E;stroke-width:16;stroke-linecap:round;stroke-linejoin:round;stroke-miterlimit:10;}
</style>
<g>
	<path class="st0" d="M-36.6,519.2c58.1-3.6,101.5-54.6,96.1-108.9c-5.3-53-54.8-91.5-107.1-87.9c-53.1,3.6-96.8,49.6-94.4,103
		c4.3,83.5,85,95.2,88.5,94.1"/>
	<path class="st0" d="M-40.2,417.8c15-28.7,44.3-22.7,56.5-6.8c12.2,15.8,5.4,46.2-9.3,47.8"/>
	<path class="st0" d="M-40.2,417.8c-16.3-27.9,5.5-50.3,25.4-52.2c24.5-2.4,43.3,20.4,37.7,32.6"/>
	<path class="st0" d="M-40.2,417.8c-31.3-0.9-41-27.5-32.8-48.8c8.9-23,42.4-24.2,51.2-12.3"/>
	<path class="st0" d="M-40.2,417.8c-18,26.9-49.9,21.5-60.3,4.4s-4.8-45.2,15.4-47.8"/>
	<path class="st0" d="M-40.2,417.8c13.3,29.5-10.3,53.5-30.2,53.5c-18.8,0-39.3-14.2-33.1-35.3"/>
	<path class="st0" d="M-40.2,417.8c32.1,4.4,43.1,34.5,32.4,51.3C-18.6,486-47.5,493-57.3,479.5"/>
</g>
</svg>
